<?xml version="1.0" encoding="UTF-8"?>
<svg width="11px" height="11px" viewBox="0 0 11 11" version="1.1" xmlns="http://www.w3.org/2000/svg" xmlns:xlink="http://www.w3.org/1999/xlink">
    <!-- Generator: Sketch 59 (86127) - https://sketch.com -->
    <title>ic_count down</title>
    <desc>Created with Sketch.</desc>
    <g id="页面-1" stroke="none" stroke-width="1" fill="none" fill-rule="evenodd">
        <g id="Overview" transform="translate(-128.000000, -485.000000)">
            <g id="ic_count-down" transform="translate(129.000000, 486.000000)">
                <path d="M2.9068,0.93051 C1.4818,1.62551 0.4998,3.08851 0.4998,4.78051 C0.4998,7.14451 2.4168,9.06051 4.7808,9.06051 C7.1448,9.06051 9.0608,7.14451 9.0608,4.78051 C9.0608,2.41651 7.1448,0.49951 4.7808,0.49951 L4.7808,1.98851" id="Stroke-1" stroke="#D3D3D3" stroke-linecap="round" stroke-linejoin="round"></path>
                <path d="M3.0748,2.22011 C3.0748,2.22011 5.1228,4.27711 5.3128,4.58011 C5.5018,4.88311 5.4098,5.28211 5.1068,5.47111 C4.8038,5.66111 4.4048,5.56911 4.2158,5.26611 C4.0268,4.96311 3.0748,2.22011 3.0748,2.22011" id="Fill-3" fill="#D3D3D3"></path>
            </g>
        </g>
    </g>
</svg>