<?xml version="1.0" encoding="UTF-8"?>
<svg width="40px" height="40px" viewBox="0 0 40 40" version="1.1" xmlns="http://www.w3.org/2000/svg" xmlns:xlink="http://www.w3.org/1999/xlink">
    <!-- Generator: Sketch 59 (86127) - https://sketch.com -->
    <title>ic_down@2x</title>
    <desc>Created with Sketch.</desc>
    <defs>
        <circle id="path-1" cx="20" cy="19.9998" r="20"></circle>
    </defs>
    <g id="简化版本" stroke="none" stroke-width="1" fill="none" fill-rule="evenodd">
        <g id="详情" transform="translate(-41.000000, -386.000000)">
            <g id="编组-2" transform="translate(17.000000, 269.000000)">
                <g id="编组-13" transform="translate(14.000000, 98.000000)">
                    <g id="状态：未选">
                        <g id="ic_down" transform="translate(10.000000, 19.000000)">
                            <g id="形状结合备份" transform="translate(0.000000, 0.000200)">
                                <mask id="mask-2" fill="white">
                                    <use xlink:href="#path-1"></use>
                                </mask>
                                <use id="蒙版" fill="#FF8717" xlink:href="#path-1"></use>
                                <g id="编组" mask="url(#mask-2)" fill="#FFFFFF">
                                    <g transform="translate(11.000000, 11.999800)">
                                        <path d="M0.553090909,16.1400909 L4.644,16.1400909 L4.644,5.54690909 L0.553090909,4.05190909 L0.553090909,16.1400909 Z M6.88945455,16.1400909 L10.9803636,16.1400909 L10.9803636,7.86236364 L6.88945455,6.36781818 L6.88945455,16.1400909 Z M13.2262727,16.1400909 L17.3171818,16.1400909 L17.3171818,10.1787273 L13.2262727,8.68372727 L13.2262727,16.1400909 Z" id="Fill-1"></path>
                                        <polygon id="Fill-2" points="0 1.70736364 4.61272727 3.39418182 6.88636364 2.15372727 16.4845455 5.66190909 15.5872727 8.10372727 19.6968182 6.03327273 17.905 1.79418182 17.1113636 3.95509091 6.73772727 0.163272727 4.465 1.40372727 0.624090909 9.09090909e-05"></polygon>
                                    </g>
                                </g>
                            </g>
                        </g>
                    </g>
                </g>
            </g>
        </g>
    </g>
</svg>