<?xml version="1.0" encoding="UTF-8"?>
<svg width="160px" height="103px" viewBox="0 0 160 103" version="1.1" xmlns="http://www.w3.org/2000/svg" xmlns:xlink="http://www.w3.org/1999/xlink">
    <!-- Generator: Sketch 59 (86127) - https://sketch.com -->
    <title>icon_Empty@svg</title>
    <desc>Created with Sketch.</desc>
    <defs>
        <filter x="0.0%" y="0.0%" width="100.0%" height="100.0%" filterUnits="objectBoundingBox" id="filter-1">
            <feGaussianBlur stdDeviation="0" in="SourceGraphic"></feGaussianBlur>
        </filter>
        <linearGradient x1="50%" y1="0%" x2="50%" y2="83.0855149%" id="linearGradient-2">
            <stop stop-color="#E9EBFA" offset="0%"></stop>
            <stop stop-color="#CED2F4" stop-opacity="0" offset="100%"></stop>
        </linearGradient>
        <path d="M56.5,1.73205081 L96.8323591,25.0179492 C98.6887656,26.089746 99.8323591,28.0705081 99.8323591,30.2141016 L99.8323591,76.7858984 C99.8323591,78.9294919 98.6887656,80.910254 96.8323591,81.9820508 L56.5,105.267949 C54.6435935,106.339746 52.3564065,106.339746 50.5,105.267949 L10.1676409,81.9820508 C8.31123444,80.910254 7.1676409,78.9294919 7.1676409,76.7858984 L7.1676409,30.2141016 C7.1676409,28.0705081 8.31123444,26.089746 10.1676409,25.0179492 L50.5,1.73205081 C52.3564065,0.660254038 54.6435935,0.660254038 56.5,1.73205081 Z" id="path-3"></path>
        <linearGradient x1="51.4483581%" y1="-13.1615016%" x2="51.4483581%" y2="100%" id="linearGradient-5">
            <stop stop-color="#D2D8FF" offset="0%"></stop>
            <stop stop-color="#A7B0FF" offset="100%"></stop>
        </linearGradient>
        <path d="M51.5848,0.732152217 L51.5848,4.79445222 C51.5848,8.30955222 48.7798,11.1580522 45.3178,11.1580522 L0,11.1580522 C3.4616,11.1580522 6.2667,8.30955222 6.2667,4.79445222 L6.2667,0.732152217 L51.5848,0.732152217 Z" id="path-6"></path>
        <path d="M12.5306,23.5503 L2.48689958e-14,23.5503 L2.48689958e-14,6.3607 C2.48689958e-14,2.8485 2.8052,-6.03961325e-14 6.2639,-6.03961325e-14 C7.9932,-6.03961325e-14 9.5604,0.7136 10.6943,1.8647 C11.8279,3.0159 12.5306,4.6046 12.5306,6.3607 L12.5306,23.5503 Z" id="path-8"></path>
        <linearGradient x1="50%" y1="0%" x2="50%" y2="100%" id="linearGradient-10">
            <stop stop-color="#959EEB" offset="0%"></stop>
            <stop stop-color="#6471E1" offset="100%"></stop>
        </linearGradient>
        <path d="M60.5524469,55.9058 L19.7652469,55.9058 L19.7652469,59.9681 C19.7652469,63.4832 16.9601469,66.3317 13.4985469,66.3317 C11.7691469,66.3317 10.2046469,65.6181 9.07134686,64.467 C7.93744686,63.3159 7.23464686,61.7242 7.23464686,59.9681 L7.23464686,6.3607 C7.23464686,4.6046 6.53194686,3.0159 5.39834686,1.8647 C4.26444686,0.7136 2.69704686,0 0.96794686,0 L54.2857469,0 C56.0150469,0 57.5821469,0.7136 58.7157469,1.8647 C59.8497469,3.0159 60.5524469,4.6046 60.5524469,6.3607 L60.5524469,55.9058 Z" id="path-11"></path>
        <path d="M14.0907,27.7289 C21.6213,27.7289 27.726,21.6241 27.726,14.0935 C27.726,6.5629 21.6213,0.4582 14.0907,0.4582 C6.5601,0.4582 0.4554,6.5629 0.4554,14.0935 C0.4554,21.6241 6.5601,27.7289 14.0907,27.7289 Z" id="path-13"></path>
        <polygon id="path-15" points="0.936 0.1281 5.2385 4.4305 4.4277 5.2413 0.1252 0.9389"></polygon>
        <polygon id="path-17" points="0.9429 1.7565 1.7537 0.9457 6.0562 5.2482 5.2454 6.059"></polygon>
        <polygon id="path-19" points="0.2385 1.093 1.0902 0.2413 1.9429 1.0941 1.0912 1.9457"></polygon>
        <polygon id="path-21" points="0.9429 4.4305 5.2454 0.1281 6.0562 0.9388 1.7537 5.2413"></polygon>
        <polygon id="path-23" points="0.1252 5.2482 4.4277 0.9457 5.2385 1.7565 0.936 6.059"></polygon>
        <path d="M0.518273171,3.09362401 L5.42507245,11.592496 C5.83936662,12.3098883 6.75677984,12.555598 7.47417223,12.1413038 C8.19156463,11.7270097 8.43727428,10.8095964 8.02298011,10.092204 L3.1163794,1.59367599 C2.70218019,0.87622877 1.7847995,0.630397681 1.06735228,1.04459689 C0.349905053,1.45879609 0.104073964,2.37617678 0.518273171,3.09362401 Z" id="path-25"></path>
        <linearGradient x1="50%" y1="-58.6438856%" x2="50%" y2="141.853041%" id="linearGradient-27">
            <stop stop-color="#FFBC33" offset="0%"></stop>
            <stop stop-color="#FF8717" offset="100%"></stop>
        </linearGradient>
    </defs>
    <g id="简化版本" stroke="none" stroke-width="1" fill="none" fill-rule="evenodd">
        <g id="没有购买" transform="translate(-108.000000, -285.000000)">
            <g id="icon_Empty" transform="translate(109.000000, 281.000000)">
                <g id="六边型" transform="translate(24.000000, 4.000000)">
                    <ellipse id="阴影" fill="#606DD7" opacity="0.0719866071" filter="url(#filter-1)" cx="58" cy="100" rx="50" ry="3"></ellipse>
                    <mask id="mask-4" fill="white">
                        <use xlink:href="#path-3"></use>
                    </mask>
                    <use id="多边形" fill="url(#linearGradient-2)" xlink:href="#path-3"></use>
                    <rect id="矩形" stroke="#F6F7FF" stroke-width="8" mask="url(#mask-4)" x="-11.0524539" y="3.55659983" width="34" height="34" rx="17"></rect>
                </g>
                <path d="M135.759,11.543 L129.42,38.2353 L125.2196,30.432 L123.933,31.7077 L123.027,32.6038 L122.091,33.4716 L118.345,36.9278 C117.718,37.4997 117.104,38.0836 116.468,38.6448 L114.538,40.306 L110.686,43.6193 L106.7324,46.8065 L104.7572,48.3934 C104.0887,48.9108 103.4077,49.4132 102.7344,49.9233 C101.3816,50.9359 100.0417,51.9599 98.6838,52.9581 C93.2091,56.9042 87.5865,60.6127 81.7997,64.0093 L79.628,65.2764 C79.1428,65.5534 78.6519556,65.8214222 78.1615704,66.0895333 L77.4271,66.4929 C76.6907,66.8925 75.9642,67.3053 75.2219,67.6932 L72.9915,68.8453 C70.007,70.354 66.9904,71.7998 63.8916,73.0216 C66.7759,71.3611 69.5285,69.5018 72.2338,67.5912 L74.2494,66.1409 C74.9188,65.655 75.5719,65.1441 76.2327,64.6479 C76.8899,64.1457 77.5535,63.6547 78.2036,63.1444 L80.1391,61.5949 C85.2857,57.4528 90.1983,53.0547 94.9072,48.4764 C96.0743,47.3198 97.2197,46.141 98.3741,44.9776 C98.9483,44.3926 99.5292,43.8157 100.0967,43.2249 L101.7676,41.4194 L105.0977,37.8135 L108.3085,34.1038 L109.91,32.2535 C110.437,31.6304 110.94,30.9849 111.456,30.3526 L114.526,26.5469 L115.29,25.5954 L116.023,24.6164 L117.2226,23.015 L109.473,19.3996 L135.759,11.543 Z" id="箭头" fill="#E0E4FF"></path>
                <g id="反折" transform="translate(61.422200, 86.355048)">
                    <mask id="mask-7" fill="white">
                        <use xlink:href="#path-6"></use>
                    </mask>
                    <use id="蒙版" fill="url(#linearGradient-5)" xlink:href="#path-6"></use>
                    <path d="M41.1672532,4.64396007 C48.6978532,4.64396007 54.8025532,-1.46083993 54.8025532,-8.99143993 C54.8025532,-16.5220399 48.6978532,-22.6267399 41.1672532,-22.6267399 C33.6366532,-22.6267399 27.5319532,-16.5220399 27.5319532,-8.99143993 C27.5319532,-1.46083993 33.6366532,4.64396007 41.1672532,4.64396007 Z" id="Clip-13备份-3" fill-opacity="0.431244537" fill="#4E5AC1" mask="url(#mask-7)"></path>
                </g>
                <g id="后折" transform="translate(42.627700, 31.181400)">
                    <mask id="mask-9" fill="white">
                        <use xlink:href="#path-8"></use>
                    </mask>
                    <use id="蒙版" fill="#4E5AC1" xlink:href="#path-8"></use>
                    <path d="M-2,-4 L14,-4 L14,10 C11.3333333,7.4123881 8.66666667,6.11858215 6,6.11858215 C3.33333333,6.11858215 0.666666667,7.4123881 -2,10 L-2,-4 Z" id="矩形" fill="#424DA7" mask="url(#mask-9)"></path>
                </g>
                <g id="大面" transform="translate(47.891600, 31.181400)">
                    <g id="编组-9" transform="translate(0.032053, 0.000000)">
                        <mask id="mask-12" fill="white">
                            <use xlink:href="#path-11"></use>
                        </mask>
                        <use id="蒙版" fill="url(#linearGradient-10)" xlink:href="#path-11"></use>
                        <path d="M1.6353,66.1378049 C9.1659,66.1378049 15.2706,60.0330049 15.2706,52.5024049 C15.2706,44.9718049 9.1659,38.8671049 1.6353,38.8671049 C-5.8953,38.8671049 -12,44.9718049 -12,52.5024049 C-12,60.0330049 -5.8953,66.1378049 1.6353,66.1378049 Z" id="Clip-13" fill-opacity="0.181245" fill="#4E5AC1" mask="url(#mask-12)"></path>
                        <path d="M53.8546916,63.4443478 C61.3852916,63.4443478 67.4899916,57.3395478 67.4899916,49.8089478 C67.4899916,42.2783478 61.3852916,36.1736478 53.8546916,36.1736478 C46.3240916,36.1736478 40.2193916,42.2783478 40.2193916,49.8089478 C40.2193916,57.3395478 46.3240916,63.4443478 53.8546916,63.4443478 Z" id="Clip-13备份-2" fill-opacity="0.431244537" fill="#4E5AC1" mask="url(#mask-12)"></path>
                    </g>
                    <g id="横" transform="translate(15.702900, 14.447900)">
                        <path d="M32.8666,15.9053 C32.8666,15.1848 32.2817,14.5999 31.5612,14.5999 L14.2076,14.5999 C13.4872,14.5999 12.9023,15.1848 12.9023,15.9053 C12.9023,16.6257 13.4872,17.2106 14.2076,17.2106 L31.5612,17.2106 C32.2817,17.2106 32.8666,16.6257 32.8666,15.9053 Z" id="Fill-26" fill-opacity="0.2729" fill="#AFB8FF"></path>
                        <path d="M25.4085,22.1114 C25.4085,21.3792 24.8141,20.7848 24.0819,20.7848 L1.3266,20.7848 C0.5945,20.7848 3.55271368e-15,21.3792 3.55271368e-15,22.1114 C3.55271368e-15,22.8436 0.5945,23.438 1.3266,23.438 L24.0819,23.438 C24.8141,23.438 25.4085,22.8436 25.4085,22.1114 Z" id="Fill-27" fill-opacity="0.2729" fill="#AFB8FF"></path>
                        <path d="M11.7702,1.3053 C11.7702,0.5849 11.1853,-2.48689958e-14 10.4649,-2.48689958e-14 L1.3054,-2.48689958e-14 C0.585,-2.48689958e-14 2.48689958e-14,0.5849 2.48689958e-14,1.3053 C2.48689958e-14,2.0258 0.585,2.6107 1.3054,2.6107 L10.4649,2.6107 C11.1853,2.6107 11.7702,2.0258 11.7702,1.3053 Z" id="Fill-28" fill="#D2D7FF"></path>
                        <path d="M32.8666,1.3053 C32.8666,0.5849 32.2817,-2.48689958e-14 31.5612,-2.48689958e-14 L14.2076,-2.48689958e-14 C13.4872,-2.48689958e-14 12.9023,0.5849 12.9023,1.3053 C12.9023,2.0258 13.4872,2.6107 14.2076,2.6107 L31.5612,2.6107 C32.2817,2.6107 32.8666,2.0258 32.8666,1.3053 Z" id="Fill-29" fill="#D2D7FF"></path>
                        <path d="M25.4085,7.5115 C25.4085,6.7793 24.8141,6.1849 24.0819,6.1849 L1.3266,6.1849 C0.5945,6.1849 3.55271368e-15,6.7793 3.55271368e-15,7.5115 C3.55271368e-15,8.2436 0.5945,8.838 1.3266,8.838 L24.0819,8.838 C24.8141,8.838 25.4085,8.2436 25.4085,7.5115 Z" id="Fill-30" fill="#B5BDFF"></path>
                        <path d="M11.7702,29.3676 C11.7702,28.6472 11.1853,28.0623 10.4649,28.0623 L1.3054,28.0623 C0.585,28.0623 2.48689958e-14,28.6472 2.48689958e-14,29.3676 C2.48689958e-14,30.088 0.585,30.673 1.3054,30.673 L10.4649,30.673 C11.1853,30.673 11.7702,30.088 11.7702,29.3676 Z" id="Fill-31" fill-opacity="0.2729" fill="#AFB8FF"></path>
                        <path d="M32.8666,29.3676 C32.8666,28.6472 32.2817,28.0623 31.5612,28.0623 L14.2076,28.0623 C13.4872,28.0623 12.9023,28.6472 12.9023,29.3676 C12.9023,30.088 13.4872,30.673 14.2076,30.673 L31.5612,30.673 C32.2817,30.673 32.8666,30.088 32.8666,29.3676 Z" id="Fill-32" fill-opacity="0.2729" fill="#AFB8FF"></path>
                        <path d="M25.4085,35.5738 C25.4085,34.8416 24.8141,34.2472 24.0819,34.2472 L1.3266,34.2472 C0.5945,34.2472 3.55271368e-15,34.8416 3.55271368e-15,35.5738 C3.55271368e-15,36.3059 0.5945,36.9003 1.3266,36.9003 L24.0819,36.9003 C24.8141,36.9003 25.4085,36.3059 25.4085,35.5738 Z" id="Fill-33" fill-opacity="0.2729" fill="#AFB8FF"></path>
                        <path d="M11.7702,15.9053 C11.7702,15.1848 11.1853,14.5999 10.4649,14.5999 L1.3054,14.5999 C0.585,14.5999 0,15.1848 0,15.9053 C0,16.6257 0.585,17.2106 1.3054,17.2106 L10.4649,17.2106 C11.1853,17.2106 11.7702,16.6257 11.7702,15.9053 Z" id="Fill-25" fill-opacity="0.2729" fill="#AFB8FF"></path>
                    </g>
                </g>
                <g id="btc" transform="translate(109.837581, 47.457896)">
                    <path d="M19.5014188,12.2930038 C18.1794188,17.5968038 12.8074188,20.8231038 7.50341882,19.5010038 C2.20141882,18.1789038 -1.02618118,12.8077038 0.296418823,7.50520378 C1.61841882,2.20140378 6.98941882,-1.02579622 12.2924188,0.296203782 C17.5964188,1.61830378 20.8234188,6.99020378 19.5014188,12.2930038 Z" id="Fill-10" fill="#D8DBFC"></path>
                    <path d="M14.2054188,8.68620378 C14.3984188,7.38610378 13.4154188,6.68720378 12.0714188,6.22090378 L12.5074188,4.45980378 L11.4434188,4.19260378 L11.0184188,5.90730378 C10.7354188,5.83720378 10.4514188,5.76980378 10.1664188,5.70520378 L10.5934188,3.97920378 L9.52941882,3.71200378 L9.09441882,5.47260378 C8.86241882,5.41940378 8.63541882,5.36690378 8.41441882,5.31160378 L8.41541882,5.30610378 L6.94741882,4.93700378 L6.66441882,6.08200378 C6.66441882,6.08200378 7.45441882,6.26430378 7.43741882,6.27560378 C7.86841882,6.38400378 7.94641882,6.67130378 7.93341882,6.89910378 L7.43741882,8.90540378 C7.46641882,8.91300378 7.50541882,8.92430378 7.54741882,8.94110378 L7.43541882,8.91300378 L6.73941882,11.7236038 C6.68641882,11.8555038 6.55241882,12.0534038 6.25141882,11.9783038 C6.26241882,11.9939038 5.47741882,11.7838038 5.47741882,11.7838038 L4.94941882,13.0112038 L6.33441882,13.3593038 C6.59241882,13.4240038 6.84441882,13.4921038 7.09341882,13.5562038 L6.65241882,15.3375038 L7.71541882,15.6047038 L8.15141882,13.8420038 C8.44241882,13.9217038 8.72441882,13.9947038 9.00041882,14.0640038 L8.56541882,15.8181038 L9.62941882,16.0853038 L10.0704188,14.3074038 C11.8854188,14.6533038 13.2494188,14.5138038 13.8244188,12.8607038 C14.2874188,11.5294038 13.8014188,10.7615038 12.8464188,10.2605038 C13.5414188,10.0987038 14.0654188,9.63790378 14.2054188,8.68620378 Z M11.7734188,12.1206038 C11.4444188,13.4518038 9.21841882,12.7325038 8.49741882,12.5517038 L9.08141882,10.1918038 C9.80341882,10.3735038 12.1164188,10.7325038 11.7734188,12.1206038 Z M12.1024188,8.66720378 C11.8024188,9.87790378 9.95041882,9.26270378 9.34941882,9.11180378 L9.87941882,6.97140378 C10.4794188,7.12230378 12.4144188,7.40380378 12.1024188,8.66690378 L12.1024188,8.66720378 Z" id="Fill-11" fill="#FFFFFF"></path>
                </g>
                <g id="npxs" transform="translate(33.000000, 69.000000)">
                    <mask id="mask-14" fill="white">
                        <use xlink:href="#path-13"></use>
                    </mask>
                    <g id="Clip-13备份"></g>
                    <polygon id="Fill-12" fill="#B0B6F2" mask="url(#mask-14)" points="0.4554 27.7289 27.7261 27.7289 27.7261 0.4582 0.4554 0.4582"></polygon>
                    <g id="编组" mask="url(#mask-14)">
                        <g transform="translate(8.000000, 8.000000)">
                            <mask id="mask-16" fill="white">
                                <use xlink:href="#path-15"></use>
                            </mask>
                            <g id="Clip-15" stroke="none" fill="none"></g>
                            <polygon id="Fill-14" stroke="none" fill="#FFFFFF" fill-rule="evenodd" mask="url(#mask-16)" points="-4.1358 9.5024 9.4995 9.5024 9.4995 -4.1329 -4.1358 -4.1329"></polygon>
                        </g>
                    </g>
                    <g id="编组" mask="url(#mask-14)">
                        <g transform="translate(14.000000, 14.000000)">
                            <mask id="mask-18" fill="white">
                                <use xlink:href="#path-17"></use>
                            </mask>
                            <g id="Clip-17" stroke="none" fill="none"></g>
                            <polygon id="Fill-16" stroke="none" fill="#FFFFFF" fill-rule="evenodd" mask="url(#mask-18)" points="-3.3181 10.32 10.3172 10.32 10.3172 -3.3153 -3.3181 -3.3153"></polygon>
                        </g>
                    </g>
                    <g id="编组" mask="url(#mask-14)">
                        <g transform="translate(13.000000, 13.000000)">
                            <mask id="mask-20" fill="white">
                                <use xlink:href="#path-19"></use>
                            </mask>
                            <g id="Clip-19" stroke="none" fill="none"></g>
                            <polygon id="Fill-18" stroke="none" fill="#FFFFFF" fill-rule="evenodd" mask="url(#mask-20)" points="-4.0226 6.2068 6.2039 6.2068 6.2039 -4.0197 -4.0226 -4.0197"></polygon>
                        </g>
                    </g>
                    <g id="编组" mask="url(#mask-14)">
                        <g transform="translate(14.000000, 8.000000)">
                            <mask id="mask-22" fill="white">
                                <use xlink:href="#path-21"></use>
                            </mask>
                            <g id="Clip-21" stroke="none" fill="none"></g>
                            <polygon id="Fill-20" stroke="none" fill="#FFFFFF" fill-rule="evenodd" mask="url(#mask-22)" points="-3.3181 9.5024 10.3172 9.5024 10.3172 -4.1329 -3.3181 -4.1329"></polygon>
                        </g>
                    </g>
                    <g id="编组" mask="url(#mask-14)">
                        <g transform="translate(8.000000, 14.000000)">
                            <mask id="mask-24" fill="white">
                                <use xlink:href="#path-23"></use>
                            </mask>
                            <g id="Clip-23" stroke="none" fill="none"></g>
                            <polygon id="Fill-22" stroke="none" fill="#FFFFFF" fill-rule="evenodd" mask="url(#mask-24)" points="-4.1358 10.32 9.4995 10.32 9.4995 -3.3153 -4.1358 -3.3153"></polygon>
                        </g>
                    </g>
                </g>
                <g id="点缀" transform="translate(0.000000, 14.281900)">
                    <path d="M58.1603,0 C61.1595,0 63.5945,2.435 63.5945,5.4343 C63.5945,8.4335 61.1595,10.8685 58.1603,10.8685 C55.161,10.8685 52.726,8.4335 52.726,5.4343 C52.726,2.435 55.161,0 58.1603,0 Z" id="Stroke-24" stroke="#D8DBFC" stroke-width="5" stroke-linecap="round" stroke-linejoin="round"></path>
                    <rect id="矩形" stroke="#EEEFFA" stroke-width="2" fill-opacity="0" fill="#D8D8D8" transform="translate(5.000000, 34.718100) rotate(-345.000000) translate(-5.000000, -34.718100) " x="1" y="30.7181" width="8" height="8" rx="3"></rect>
                    <rect id="矩形备份-8" stroke="#CED2F4" stroke-width="1.5" fill-opacity="0" fill="#D8D8D8" opacity="0.242885045" transform="translate(154.292893, 67.493355) rotate(-345.000000) translate(-154.292893, -67.493355) " x="151.292893" y="64.4933551" width="6" height="6" rx="1"></rect>
                    <rect id="矩形备份-7" stroke="#FF8717" fill-opacity="0" fill="#D8D8D8" opacity="0.196149554" stroke-linejoin="round" transform="translate(15.500000, 61.218100) rotate(-211.000000) translate(-15.500000, -61.218100) " x="13" y="58.7181" width="5" height="5" rx="1"></rect>
                </g>
                <g id="search" transform="translate(91.658470, 68.218070)">
                    <g id="编组-10" transform="translate(12.634503, 15.634580)">
                        <mask id="mask-26" fill="white">
                            <use xlink:href="#path-25"></use>
                        </mask>
                        <use id="Stroke-36" fill="#FF8717" fill-rule="nonzero" xlink:href="#path-25"></use>
                        <path d="M-8.49991091,-15.5261186 C-3.24224506,-18.5616117 3.49076407,-16.7575787 6.52662368,-11.4999545 C9.56134156,-6.24233024 7.75740844,0.490625588 2.5000851,3.52611864 C-2.75758075,6.5616117 -9.49058988,4.75757868 -12.526107,-0.500045539 C-15.5616241,-5.75766976 -13.7575768,-12.4906256 -8.49991091,-15.5261186 Z" id="Stroke-35" stroke-opacity="0.496121066" stroke="#D95D37" stroke-width="3" stroke-linecap="round" stroke-linejoin="round" mask="url(#mask-26)"></path>
                    </g>
                    <path d="M4.81732977,1.29092977 C9.42232977,-1.36777023 15.3195298,0.212329773 17.9785298,4.81732977 C20.6365298,9.42232977 19.0565298,15.3195298 14.4518298,17.9782298 C9.84682977,20.6369298 3.94962977,19.0568298 1.29092977,14.4518298 C-1.36777023,9.84682977 0.212329773,3.94962977 4.81732977,1.29092977 Z" id="Fill-34" fill-opacity="0.92" fill="#FFFFFF"></path>
                    <path d="M4.81732977,1.29092977 C9.42232977,-1.36777023 15.3195298,0.212329773 17.9785298,4.81732977 C20.6365298,9.42232977 19.0565298,15.3195298 14.4518298,17.9782298 C9.84682977,20.6369298 3.94962977,19.0568298 1.29092977,14.4518298 C-1.36777023,9.84682977 0.212329773,3.94962977 4.81732977,1.29092977 Z" id="Stroke-35" stroke="url(#linearGradient-27)" stroke-width="3" stroke-linecap="round" stroke-linejoin="round"></path>
                    <path d="M19.5275298,25.0888298 C19.2955298,24.6872298 18.7815298,24.5493298 18.3795298,24.7812298 C17.9775298,25.0131298 17.8405298,25.5275298 18.0715298,25.9291298 L22.0675298,32.8491298 C22.2995298,33.2507298 22.8135298,33.3885298 23.2155298,33.1566298 C23.6165298,32.9248298 23.7545298,32.4104298 23.5225298,32.0088298 L19.5275298,25.0888298 Z" id="Fill-37" fill="#FFFFFF"></path>
                    <path d="M19.5275298,25.0888298 C19.2955298,24.6872298 18.7815298,24.5493298 18.3795298,24.7812298 C17.9775298,25.0131298 17.8405298,25.5275298 18.0715298,25.9291298 L22.0675298,32.8491298 C22.2995298,33.2507298 22.8135298,33.3885298 23.2155298,33.1566298 C23.6165298,32.9248298 23.7545298,32.4104298 23.5225298,32.0088298 L19.5275298,25.0888298 Z" id="Stroke-38" stroke="#FF8717" stroke-width="3" stroke-linecap="round" stroke-linejoin="round"></path>
                    <text id="NO" font-family="Arial-Black, Arial Black" font-size="6.6924" font-weight="700" letter-spacing="0.00066924" fill="#FF9920">
                        <tspan x="4.08572066" y="12.1055265">NO</tspan>
                    </text>
                </g>
            </g>
        </g>
    </g>
</svg>